<svg xmlns="http://www.w3.org/2000/svg" width="86" height="85.091" viewBox="0 0 86 85.091">
  <g id="burger" transform="translate(-0.001 0)">
    <path id="Path_1" data-name="Path 1" d="M287.623,47.412a36.474,36.474,0,0,1,14.8,5.612,23.061,23.061,0,0,1,8.562,9.871,1.68,1.68,0,1,0,3.1-1.305A26.393,26.393,0,0,0,304.3,50.242a39.847,39.847,0,0,0-16.165-6.149,1.68,1.68,0,0,0-.514,3.32Zm0,0" transform="translate(-238.127 -36.669)" fill="#ff5a5a"/>
    <path id="Path_2" data-name="Path 2" d="M99.756,127.522a1.679,1.679,0,1,0,.578-2.012A1.718,1.718,0,0,0,99.756,127.522Zm0,0" transform="translate(-82.899 -104.179)" fill="#ff5a5a"/>
    <path id="Path_3" data-name="Path 3" d="M147.928,90.278a1.678,1.678,0,1,0,.568-2A1.715,1.715,0,0,0,147.928,90.278Zm0,0" transform="translate(-122.979 -73.19)" fill="#ff5a5a"/>
    <path id="Path_4" data-name="Path 4" d="M199.694,127.522a1.679,1.679,0,1,0,.578-2.012A1.719,1.719,0,0,0,199.694,127.522Zm0,0" transform="translate(-166.051 -104.179)" fill="#ff5a5a"/>
    <path id="Path_5" data-name="Path 5" d="M86,53.236a8.511,8.511,0,0,0-5.681-8.015v-4.2a7.213,7.213,0,0,0,1.524-.778,6.633,6.633,0,0,0,3.01-5.568,6.562,6.562,0,0,0-1.245-3.865,5.42,5.42,0,0,0,.334-3.109C82.5,20,77.564,12.963,70.034,7.869A48.611,48.611,0,0,0,43,0,48.611,48.611,0,0,0,15.968,7.869C8.437,12.963,3.5,20,2.06,27.7a5.417,5.417,0,0,0,.7,3.825,6.534,6.534,0,0,0-.8,3.149,6.632,6.632,0,0,0,3.01,5.569,7.312,7.312,0,0,0,.706.416v4.564A8.511,8.511,0,0,0,0,53.236v.341a8.474,8.474,0,0,0,2.708,6.212,6.624,6.624,0,0,0,.972,7.5v6.061A11.757,11.757,0,0,0,15.426,85.092h55.15A11.757,11.757,0,0,0,82.32,73.348v-5.3a6.633,6.633,0,0,0,1.491-8.784A8.461,8.461,0,0,0,86,53.577Zm-3.359,0v.341A5.145,5.145,0,0,1,77.5,58.715H51.458L62.169,48.1H77.5a5.144,5.144,0,0,1,5.138,5.137ZM25.459,48.1l.266.267,1.723,1.722L23.842,53.7l-5.6-5.6ZM41.318,59.207,31.013,48.9v0l-.8-.8H57.39L46.164,59.2l0,0,0,0-2.42,2.42ZM5.361,28.314c1.272-6.8,5.708-13.076,12.489-17.664A45.224,45.224,0,0,1,43,3.36a45.224,45.224,0,0,1,25.151,7.291c6.781,4.588,11.216,10.861,12.489,17.664a2.111,2.111,0,0,1-2.053,2.467H7.414a2.11,2.11,0,0,1-2.053-2.467Zm.088,5.461a5.47,5.47,0,0,0,1.965.365H78.587a5.479,5.479,0,0,0,2.668-.695,3.256,3.256,0,0,1,.239,1.226,3.321,3.321,0,0,1-1.524,2.779,3.957,3.957,0,0,1-3.384.467c-.56-.177-1.088-.405-1.665-.529a9.08,9.08,0,0,0-1.9-.193,9.207,9.207,0,0,0-5.9,2.049,6.2,6.2,0,0,1-7.931,0,9.526,9.526,0,0,0-11.807,0,6.2,6.2,0,0,1-7.932,0,9.529,9.529,0,0,0-11.807,0,6.2,6.2,0,0,1-7.933,0A9.2,9.2,0,0,0,13.8,37.2a8.5,8.5,0,0,0-3.272.615,3.963,3.963,0,0,1-3.68-.36,3.321,3.321,0,0,1-1.524-2.779,3.236,3.236,0,0,1,.123-.9Zm3.926,7.683A8.159,8.159,0,0,0,11.9,40.88a5.786,5.786,0,0,1,2.577-.3,6.076,6.076,0,0,1,3.287,1.405,9.526,9.526,0,0,0,11.807,0,6.2,6.2,0,0,1,7.932,0,9.526,9.526,0,0,0,11.807,0,6.2,6.2,0,0,1,7.932,0,9.525,9.525,0,0,0,11.806,0,5.938,5.938,0,0,1,3.966-1.434,5.439,5.439,0,0,1,2,.365,7.78,7.78,0,0,0,1.941.5V44.74H9.042V41.467c.112,0,.222,0,.334-.009ZM3.36,53.236A5.144,5.144,0,0,1,8.5,48.1h5l9.16,9.16a1.681,1.681,0,0,0,2.375,0l4.795-4.795,6.251,6.251H8.5A5.145,5.145,0,0,1,3.36,53.577ZM5.6,61.565a8.522,8.522,0,0,0,2.895.509H39.435l3.115,3.115a1.7,1.7,0,0,0,2.37.005l3.149-3.121H77.5a8.546,8.546,0,0,0,2.789-.47,4.278,4.278,0,0,0,.556-.221c.057-.03.14-.1.207-.091.093.007.117.125.151.2a3.251,3.251,0,0,1,.287,1.28,3.5,3.5,0,0,1-2.6,3.342,3.977,3.977,0,0,1-2.6-.143,8.485,8.485,0,0,0-3.27-.615,9.2,9.2,0,0,0-5.9,2.05,6.2,6.2,0,0,1-7.932,0,9.526,9.526,0,0,0-11.807,0,6.2,6.2,0,0,1-7.932,0,9.526,9.526,0,0,0-11.807,0,6.2,6.2,0,0,1-7.932,0,9.205,9.205,0,0,0-5.9-2.05,8.485,8.485,0,0,0-3.271.616,3.96,3.96,0,0,1-3.409-.194A3.445,3.445,0,0,1,5.363,63.33a3.314,3.314,0,0,1-.009-.94c.012-.091.166-.856.249-.825ZM78.96,73.347a8.394,8.394,0,0,1-8.385,8.385H15.426a8.394,8.394,0,0,1-8.385-8.385V69.363a7.274,7.274,0,0,0,4.286-.108l.086-.029c.129-.045.259-.092.386-.144a5.2,5.2,0,0,1,2-.366,5.932,5.932,0,0,1,3.966,1.434,9.527,9.527,0,0,0,11.808,0,6.2,6.2,0,0,1,7.932,0,9.526,9.526,0,0,0,11.807,0,6.2,6.2,0,0,1,7.931,0,9.526,9.526,0,0,0,11.807,0,5.934,5.934,0,0,1,3.966-1.434,5.545,5.545,0,0,1,1.486.19c.46.128.894.33,1.354.46a7.247,7.247,0,0,0,3.1.175v3.807Zm0,0" fill="#ff5a5a"/>
    <path id="Path_6" data-name="Path 6" d="M225.307,90.277a1.679,1.679,0,1,0,.58-2.012A1.716,1.716,0,0,0,225.307,90.277Zm0,0" transform="translate(-187.36 -73.189)" fill="#ff5a5a"/>
    <path id="Path_7" data-name="Path 7" d="M270.425,134.362a1.679,1.679,0,1,0,.578-2.012A1.717,1.717,0,0,0,270.425,134.362Zm0,0" transform="translate(-224.901 -109.87)" fill="#ff5a5a"/>
    <path id="Path_8" data-name="Path 8" d="M241.827,40.784a1.68,1.68,0,1,0-.636-1.992,1.715,1.715,0,0,0,.636,1.992Zm0,0" transform="translate(-200.592 -31.373)" fill="#ff5a5a"/>
  </g>
</svg>
