<svg xmlns="http://www.w3.org/2000/svg" width="101.186" height="101.186" viewBox="0 0 101.186 101.186">
  <g id="hotdog" transform="translate(0.002 0.001)">
    <path id="Path_9" data-name="Path 9" d="M96.062,24.412l-1.478-1.478A11.715,11.715,0,0,0,78.259,6.609L76.782,5.133a17.577,17.577,0,0,0-24.829,0L48.161,8.925a1.976,1.976,0,1,0,2.795,2.8l3.793-3.794a13.621,13.621,0,0,1,19.239,0l1.356,1.357L9.284,75.345,7.927,73.988a13.62,13.62,0,0,1,0-19.239L41.319,21.358a1.976,1.976,0,1,0-2.795-2.8L5.132,51.954a17.576,17.576,0,0,0,0,24.828L6.609,78.26A11.712,11.712,0,0,0,22.934,94.584l1.478,1.478a17.6,17.6,0,0,0,24.828,0L96.061,49.24a17.6,17.6,0,0,0,0-24.828ZM84.675,33.753c.4.838.1,2.449-1.235,3.784s-2.945,1.633-3.783,1.235q-.232-.11-.472-.2l5.294-5.294c.059.16.124.317.2.472Zm-15.3,15.3c.4.838.1,2.45-1.235,3.783s-2.945,1.633-3.784,1.235c-.154-.073-.311-.138-.471-.2l5.294-5.294c.058.161.124.317.2.472Zm-15.3,15.3c.4.838.1,2.45-1.235,3.784s-2.945,1.633-3.783,1.234q-.232-.109-.471-.2l5.293-5.294c.059.16.124.317.2.471Zm-15.3,15.3c.4.838.1,2.45-1.235,3.784s-2.946,1.633-3.783,1.235c-.154-.073-.312-.138-.472-.2l5.294-5.294q.087.24.2.472ZM10.681,90.513a7.791,7.791,0,0,1,0-10.975l0,0L79.536,10.682h0A7.761,7.761,0,0,1,90.512,21.658L21.657,90.513l0,0a7.769,7.769,0,0,1-10.975,0ZM93.267,46.446,46.445,93.267a13.649,13.649,0,0,1-19.239,0L25.849,91.91l2.428-2.428c1.335-1.335,2.945-1.632,3.784-1.235,2.54,1.2,5.863.394,8.27-2.013s3.215-5.73,2.013-8.27c-.4-.838-.1-2.448,1.234-3.781l0,0c1.334-1.332,2.944-1.63,3.782-1.234,2.541,1.2,5.863.394,8.27-2.013s3.215-5.73,2.012-8.27c-.4-.838-.1-2.448,1.234-3.782l0,0c1.333-1.333,2.944-1.63,3.782-1.234,2.54,1.2,5.863.394,8.27-2.013s3.215-5.73,2.013-8.27c-.4-.838-.1-2.45,1.235-3.784s2.945-1.632,3.783-1.234c2.54,1.2,5.863.394,8.27-2.013s3.215-5.73,2.013-8.27c-.4-.838-.1-2.45,1.235-3.783h0l2.427-2.427,1.356,1.357a13.649,13.649,0,0,1,0,19.239Zm0,0" transform="translate(0 0)" fill="#ff5a5a"/>
    <path id="Path_10" data-name="Path 10" d="M214.3,74.489a1.972,1.972,0,0,0,1.4-.582l.038-.038a1.976,1.976,0,0,0-2.8-2.788l-.037.038a1.976,1.976,0,0,0,1.4,3.37Zm0,0" transform="translate(-170.364 -56.568)" fill="#ff5a5a"/>
    <path id="Path_11" data-name="Path 11" d="M80.267,141.112a6.186,6.186,0,0,0,.982-7.456,2.224,2.224,0,0,1,3.039-3.038,6.177,6.177,0,0,0,8.437-8.438,2.224,2.224,0,0,1,3.039-3.039A6.176,6.176,0,0,0,104.2,110.7a2.224,2.224,0,0,1,3.039-3.039,6.176,6.176,0,0,0,8.437-8.437,2.224,2.224,0,0,1,3.039-3.039,6.176,6.176,0,0,0,8.437-8.437,2.224,2.224,0,0,1,3.039-3.039,6.177,6.177,0,0,0,8.437-8.438,2.224,2.224,0,0,1,3.039-3.039,1.976,1.976,0,1,0,1.976-3.422,6.176,6.176,0,0,0-8.437,8.437,2.224,2.224,0,0,1-3.039,3.039,6.176,6.176,0,0,0-8.437,8.437,2.224,2.224,0,0,1-3.039,3.039,6.177,6.177,0,0,0-8.437,8.438,2.224,2.224,0,0,1-3.039,3.039,6.177,6.177,0,0,0-8.438,8.437,2.224,2.224,0,0,1-3.039,3.039,6.176,6.176,0,0,0-8.437,8.437,2.224,2.224,0,0,1-3.039,3.039,6.176,6.176,0,0,0-8.437,8.437,2.225,2.225,0,0,1-3.039,3.039,1.976,1.976,0,0,0-1.976,3.423,6.185,6.185,0,0,0,7.456-.982Zm0,0" transform="translate(-57.63 -55.357)" fill="#ff5a5a"/>
    <path id="Path_12" data-name="Path 12" d="M189.862,188.287l-.093.014a1.976,1.976,0,1,0,.61,3.9l.063-.009a1.976,1.976,0,1,0-.579-3.909Zm0,0" transform="translate(-150.925 -151.059)" fill="#ff5a5a"/>
    <path id="Path_13" data-name="Path 13" d="M131.125,203.659l.063-.01a1.976,1.976,0,1,0-.579-3.909l-.093.015a1.976,1.976,0,1,0,.609,3.9Zm0,0" transform="translate(-103.382 -160.249)" fill="#ff5a5a"/>
    <path id="Path_14" data-name="Path 14" d="M119.146,258.992l-.079.012a1.976,1.976,0,1,0,.608,3.905l.079-.012a1.976,1.976,0,0,0-.608-3.9Zm0,0" transform="translate(-94.196 -207.79)" fill="#ff5a5a"/>
    <path id="Path_15" data-name="Path 15" d="M60.437,274.366l.045-.007h0a1.976,1.976,0,1,0-.586-3.908l-.1.015a1.976,1.976,0,1,0,.638,3.9Zm0,0" transform="translate(-46.652 -216.985)" fill="#ff5a5a"/>
    <path id="Path_16" data-name="Path 16" d="M48.457,329.692l-.107.016a1.976,1.976,0,1,0,.636,3.9l.049-.008a1.976,1.976,0,0,0-.579-3.909Zm0,0" transform="translate(-37.466 -264.519)" fill="#ff5a5a"/>
    <path id="Path_17" data-name="Path 17" d="M260.565,117.583l-.093.014a1.976,1.976,0,1,0,.61,3.9l.064-.009a1.976,1.976,0,0,0-.581-3.909Zm0,0" transform="translate(-207.656 -94.329)" fill="#ff5a5a"/>
    <path id="Path_18" data-name="Path 18" d="M201.832,132.956l.076-.012a1.976,1.976,0,1,0-.607-3.9l-.079.012a1.976,1.976,0,1,0,.61,3.9Zm0,0" transform="translate(-160.115 -103.519)" fill="#ff5a5a"/>
    <path id="Path_19" data-name="Path 19" d="M331.478,50.831a1.985,1.985,0,0,0,.307-.025l.055-.008.009,0a1.976,1.976,0,0,0-.59-3.908l-.084.012a1.977,1.977,0,0,0,.3,3.929Zm0,0" transform="translate(-264.386 -37.606)" fill="#ff5a5a"/>
    <path id="Path_20" data-name="Path 20" d="M272.225,62.278a1.964,1.964,0,0,0,.32-.026l.05-.008a1.976,1.976,0,1,0-.579-3.909l-.107.016a1.976,1.976,0,0,0,.315,3.927Zm0,0" transform="translate(-216.843 -46.789)" fill="#ff5a5a"/>
    <path id="Path_21" data-name="Path 21" d="M274.665,361.036l-4.336,4.336a1.976,1.976,0,0,0,2.795,2.8l4.336-4.337a1.976,1.976,0,0,0-2.795-2.795Zm0,0" transform="translate(-216.441 -289.222)" fill="#ff5a5a"/>
    <path id="Path_22" data-name="Path 22" d="M249.863,403.293l-.038.038a1.976,1.976,0,1,0,2.795,2.795l.038-.037a1.976,1.976,0,1,0-2.795-2.8Zm0,0" transform="translate(-199.989 -323.127)" fill="#ff5a5a"/>
  </g>
</svg>
