<svg xmlns="http://www.w3.org/2000/svg" width="88.95" height="111.186" viewBox="0 0 88.95 111.186">
  <g id="no-drinks" transform="translate(-63.997 -16)">
    <circle id="Ellipse_1" data-name="Ellipse 1" cx="1.5" cy="1.5" r="1.5" transform="translate(73.997 53)" fill="#ff5a5a"/>
    <ellipse id="Ellipse_2" data-name="Ellipse 2" cx="2" cy="2.5" rx="2" ry="2.5" transform="translate(78.997 58)" fill="#ff5a5a"/>
    <ellipse id="Ellipse_3" data-name="Ellipse 3" cx="1.5" cy="2" rx="1.5" ry="2" transform="translate(71.997 101)" fill="#ff5a5a"/>
    <ellipse id="Ellipse_4" data-name="Ellipse 4" cx="1.5" cy="2.5" rx="1.5" ry="2.5" transform="translate(76.997 106)" fill="#ff5a5a"/>
    <ellipse id="Ellipse_5" data-name="Ellipse 5" cx="1.5" cy="2.5" rx="1.5" ry="2.5" transform="translate(76.997 95)" fill="#ff5a5a"/>
    <path id="Path_23" data-name="Path 23" d="M134.415,90.124a18.542,18.542,0,0,0-3.706.373V73.446a1.86,1.86,0,0,0-.095-.586l-3.706-11.119a1.853,1.853,0,0,0-1.758-1.267h-8.5l2.4-2.4a1.854,1.854,0,1,0-2.622-2.622l-5.017,5.017h-7.565c1.469-7.1.74-13.064-2.177-17.74a18.926,18.926,0,0,0-9.959-7.746V30.825a1.853,1.853,0,0,0,1.853-1.853V21.559A5.566,5.566,0,0,0,88,16H80.589a5.566,5.566,0,0,0-5.559,5.559v7.412a1.853,1.853,0,0,0,1.853,1.853h0v4.163a18.88,18.88,0,0,0-10.145,8.051c-3.277,5.5-3.6,12.7-.973,21.418V93.529L64.472,97.4a9.2,9.2,0,0,0-.452,3.588l1.255,17.589a9.3,9.3,0,0,0,9.242,8.6h2.1a9.251,9.251,0,0,0,7.674-4.072,9.242,9.242,0,0,0,7.672,4.072h2.1a9.208,9.208,0,0,0,3.652-.748,1.851,1.851,0,0,0,1.483.748H125.15a1.853,1.853,0,0,0,1.657-1.024l.252-.5a18.529,18.529,0,1,0,7.357-35.535Zm9.083,6.827-20.787,20.787A14.813,14.813,0,0,1,143.5,96.951ZM69.471,69.74H94.782l-1.04,3.12a1.853,1.853,0,0,0-.095.586V88.271H69.471Zm49.822,28.225a9.324,9.324,0,0,0-2.7.046l-5.4.9a5.52,5.52,0,0,1-4.144-.959l-9.7-6.928V83.034l7.284,6.243a9.242,9.242,0,0,0,7.553,2.105l5.013-.834a5.559,5.559,0,0,1,3.773.715l3.229,1.937A18.677,18.677,0,0,0,119.293,97.965Zm3.59-9.88a9.276,9.276,0,0,0-6.288-1.193l-5.014.834a5.545,5.545,0,0,1-4.532-1.263l-9.7-8.31V75.3H127V90.557Zm-25.53,7.493,7.543,5.389a9.2,9.2,0,0,0,5.364,1.727,9.357,9.357,0,0,0,1.544-.129l5.4-.9.057-.008a18.478,18.478,0,0,0,.177,14.408H97.353Zm28.932-23.985H98.071l2.471-7.412h23.272ZM99.206,60.474a1.853,1.853,0,0,0-1.758,1.267l-1.431,4.292H69.471V64.181a1.849,1.849,0,0,0-.082-.545c-1.7-5.539-2.105-10.319-1.206-14.28h32.225a25.211,25.211,0,0,1-.356,11.119ZM78.736,21.559a1.855,1.855,0,0,1,1.853-1.853H88a1.855,1.855,0,0,1,1.853,1.853v5.559H78.736ZM88,30.825v3.706H80.589V30.825Zm-9.052,7.412H89.64a15.458,15.458,0,0,1,8.909,6.5c.183.3.354.6.515.91H69.527c.118-.226.24-.45.369-.669a15.424,15.424,0,0,1,9.054-6.744ZM91.967,123.48A5.545,5.545,0,0,1,87.343,121l-1.506-2.258a1.853,1.853,0,0,0-3.084,0L81.248,121a5.554,5.554,0,0,1-4.626,2.476h-2.1a5.58,5.58,0,0,1-5.546-5.163l-1.255-17.589a5.517,5.517,0,0,1,.271-2.151l1.388-4.16a1.854,1.854,0,0,0,.1-.586V91.977H93.647V117.92a1.852,1.852,0,0,0,.2.829l2.186,4.372a5.533,5.533,0,0,1-1.958.359Zm8.384,0L98.5,119.774h21.1a18.693,18.693,0,0,0,3.709,3.706Zm34.064,0a14.747,14.747,0,0,1-9.083-3.121l20.787-20.787a14.813,14.813,0,0,1-11.7,23.908Z" transform="translate(0)" fill="#ff5a5a"/>
  </g>
</svg>
