<svg xmlns="http://www.w3.org/2000/svg" width="92.434" height="92.434" viewBox="0 0 92.434 92.434">
  <path id="sandwiches" d="M86.967,35.471q.05-.782.051-1.578c0-11.893-8.5-21.568-18.956-21.568a17.6,17.6,0,0,0-10.971,3.907,17.658,17.658,0,0,0-8.166-3.684V3.082a2.731,2.731,0,1,0-5.416,0v9.464A17.624,17.624,0,0,0,35.389,16.2a17.386,17.386,0,0,0-10.836-3.875C14,12.325,5.416,22,5.416,33.893q0,.8.051,1.577A19.757,19.757,0,0,0,0,49.3a20.868,20.868,0,0,0,.475,4.439A24.531,24.531,0,0,0,0,58.542,23.068,23.068,0,0,0,5.6,73.826C6.88,84.354,15.006,92.434,24.553,92.434H68.062c9.532,0,17.5-8.03,18.778-18.609a23.066,23.066,0,0,0,5.594-15.284,24.537,24.537,0,0,0-.475-4.8,20.868,20.868,0,0,0,.475-4.439,19.759,19.759,0,0,0-5.467-13.827ZM73.478,73.948a13.312,13.312,0,0,1-10.468-5.4q.173-.377.334-.763H76.186a14.976,14.976,0,0,0,10-3.926C84.279,69.741,79.3,73.948,73.478,73.948ZM6.248,63.859a14.976,14.976,0,0,0,10,3.926H29.089q.162.386.335.763a13.312,13.312,0,0,1-10.468,5.4c-5.824,0-10.8-4.206-12.708-10.088Zm29.136,3.924H57.05a13.1,13.1,0,0,1-10.833,6.165,13.1,13.1,0,0,1-10.833-6.165Zm-10.831-49.3a12.29,12.29,0,0,1,6.776,2.07,23.392,23.392,0,0,0-4.068,13.336,2.912,2.912,0,0,0,2.708,3.081,2.912,2.912,0,0,0,2.708-3.081c0-8.495,6.074-15.406,13.54-15.406a12.291,12.291,0,0,1,6.8,2.088,23.239,23.239,0,0,0-4.094,13.318,2.731,2.731,0,1,0,5.416,0c0-8.495,6.155-15.406,13.721-15.406,7.466,0,13.54,6.911,13.54,15.406S75.528,49.3,68.062,49.3H24.553c-7.566,0-13.721-6.911-13.721-15.406S16.987,18.487,24.553,18.487ZM7.1,42.725c3,7.5,9.7,12.735,17.457,12.735H68.062c7.683,0,14.312-5.227,17.286-12.719a13.613,13.613,0,0,1,1.67,6.556c0,6.8-4.859,12.325-10.832,12.325H16.248c-5.973,0-10.832-5.528-10.832-12.325A13.606,13.606,0,0,1,7.1,42.725ZM68.062,86.272H24.553A13.535,13.535,0,0,1,12.9,78.982a16.826,16.826,0,0,0,6.055,1.128,18.385,18.385,0,0,0,13.712-6.49,17.936,17.936,0,0,0,13.549,6.49,17.936,17.936,0,0,0,13.549-6.49,18.385,18.385,0,0,0,13.712,6.49,16.806,16.806,0,0,0,6.083-1.139,13.344,13.344,0,0,1-11.5,7.3Zm0,0" transform="translate(0 0)" fill="#ff5a5a"/>
</svg>
